<svg width="16" height="15" viewBox="0 0 16 15" fill="none" xmlns="http://www.w3.org/2000/svg">
<g id="call">
<path id="Rectangle 77" d="M15.125 13.0417V11.7386C15.125 11.0912 14.7308 10.509 14.1297 10.2685L12.5193 9.6244C11.7548 9.31857 10.8834 9.64987 10.5151 10.3864L10.375 10.6667C10.375 10.6667 8.39583 10.2708 6.8125 8.6875C5.22917 7.10417 4.83333 5.125 4.83333 5.125L5.1136 4.98487C5.85013 4.6166 6.18143 3.74523 5.8756 2.98066L5.23145 1.3703C4.991 0.769173 4.4088 0.375 3.76136 0.375H2.45833C1.58388 0.375 0.875 1.08388 0.875 1.95833C0.875 8.95394 6.54606 14.625 13.5417 14.625C14.4161 14.625 15.125 13.9161 15.125 13.0417Z" fill="#F5F7F9"/>
</g>
</svg>
